<svg width="512" height="512" xmlns="http://www.w3.org/2000/svg">

 <g>
  <title>background</title>
  <rect fill="none" id="canvas_background" height="402" width="582" y="-1" x="-1"/>
 </g>
 <g>
  <title>Layer 1</title>
  <path id="svg_1" fill="#CAE9F7" d="m255.999,157.309c-4.688,0 -8.488,-5.33 -8.488,-11.904l0,-59.78c0,-6.575 3.801,-11.904 8.488,-11.904c4.688,0 8.488,5.33 8.488,11.904l0,59.778c0.001,6.575 -3.8,11.906 -8.488,11.906z"/>
  <g id="svg_2">
   <circle id="svg_3" fill="#578CAD" r="40.380997" cy="56.36" cx="255.997504"/>
   <path id="svg_4" fill="#578CAD" d="m330.029504,139.362l-148.059,0c-11.153,0 -20.19,9.038 -20.19,20.19l0,15.702l188.439,0l0,-15.702c0,-11.151 -9.04,-20.19 -20.19,-20.19z"/>
  </g>
  <g id="svg_5">
   <path id="svg_6" opacity="0.1" fill="#231F20" d="m233.622,56.36c0,-19.206 13.412,-35.269 31.379,-39.36c-2.896,-0.66 -5.904,-1.02 -9,-1.02c-22.303,0 -40.381,18.078 -40.381,40.38c0,22.301 18.078,40.38 40.381,40.38c3.095,0 6.104,-0.36 9,-1.02c-17.968,-4.093 -31.379,-20.155 -31.379,-39.36z"/>
   <path id="svg_7" opacity="0.1" fill="#231F20" d="m199.972,139.362l-18.001,0c-11.153,0 -20.19,9.038 -20.19,20.19l0,15.702l18.002,0l0,-15.702c0,-11.151 9.036,-20.19 20.189,-20.19z"/>
  </g>
  <path id="svg_8" fill="#578CAD" d="m301.233,496.021l-103.001,0c-11.149,0 -20.191,-9.041 -20.191,-20.19l0,-11.216c0,-11.15 9.041,-20.19 20.191,-20.19l115.53,0c11.153,0 20.191,9.04 20.191,20.19l0,11.216c0,11.15 -9.038,20.19 -20.191,20.19l-12.529,0"/>
  <path id="svg_9" opacity="0.1" fill="#231F20" d="m196.043,475.831l0,-11.216c0,-11.15 9.041,-20.19 20.191,-20.19l-18.001,0c-11.149,0 -20.191,9.04 -20.191,20.19l0,11.216c0,11.15 9.041,20.19 20.191,20.19l18.001,0c-11.15,0 -20.191,-9.041 -20.191,-20.19z"/>
  <g id="svg_10">
   <path id="svg_11" fill="#578CAD" d="m55.244,244.798c-30.538,0.175 -55.244,28.974 -55.244,64.486s24.706,64.311 55.244,64.488l0,-128.974z"/>
   <path id="svg_12" fill="#578CAD" d="m456.756,244.798c30.535,0.175 55.244,28.975 55.244,64.487s-24.709,64.311 -55.244,64.488l0,-128.975z"/>
  </g>
  <path id="svg_13" fill="#578CAD" d="m438.832499,174.124l-305.1,0l-28.294,0l-32.269,0c-11.151,0 -20.191,9.04 -20.191,20.19l0,232.185c0,11.151 9.04,20.19 20.191,20.19l365.663,0c11.149,0 20.189,-9.04 20.189,-20.19l0,-232.185c0,-11.151 -9.039,-20.19 -20.189,-20.19z"/>
  <g id="svg_14">
   <circle id="svg_15" fill="#CAE9F7" r="24.676" cy="269.466" cx="161.777"/>
   <circle id="svg_16" fill="#CAE9F7" r="24.676" cy="269.466" cx="350.218"/>
   <path id="svg_17" fill="#CAE9F7" d="m312.082,373.78c0,11.15 -9.038,20.19 -20.191,20.19l-71.787,0c-11.15,0 -20.191,-9.04 -20.191,-20.19l0,-16.825c0,-11.15 9.04,-20.19 20.191,-20.19l71.787,0c11.153,0 20.191,9.04 20.191,20.19l0,16.825z"/>
  </g>
  <g id="svg_18">
   <path id="svg_19" opacity="0.1" fill="#231F20" d="m18.002,309.284c0,-25.499 10.143,-48.232 25.988,-63.092c-25.13,6.167 -43.99,32.067 -43.99,63.092c0,31.027 18.86,56.926 43.99,63.092c-15.845,-14.86 -25.988,-37.592 -25.988,-63.092z"/>
   <path id="svg_20" opacity="0.1" fill="#231F20" d="m70.98,426.498l0,-232.184c0,-11.15 9.038,-20.19 20.191,-20.19l-18.004,0c-11.151,0 -20.191,9.04 -20.191,20.19l0,232.185c0,11.151 9.04,20.19 20.191,20.19l18.002,0c-11.151,0 -20.189,-9.04 -20.189,-20.191z"/>
   <path id="svg_21" opacity="0.1" fill="#231F20" d="m155.105,269.465c0,-10.451 6.5,-19.378 15.676,-22.975c-2.79,-1.093 -5.823,-1.701 -9,-1.701c-13.63,0 -24.678,11.048 -24.678,24.676c0,13.628 11.048,24.676 24.678,24.676c3.177,0 6.21,-0.608 9,-1.701c-9.177,-3.597 -15.676,-12.524 -15.676,-22.975z"/>
   <path id="svg_22" opacity="0.1" fill="#231F20" d="m343.544,269.465c0,-10.451 6.5,-19.378 15.677,-22.975c-2.79,-1.093 -5.825,-1.701 -9.001,-1.701c-13.63,0 -24.677,11.048 -24.677,24.676c0,13.628 11.047,24.676 24.677,24.676c3.177,0 6.211,-0.608 9.001,-1.701c-9.177,-3.597 -15.677,-12.524 -15.677,-22.975z"/>
   <path id="svg_23" opacity="0.1" fill="#231F20" d="m217.916,373.78l0,-16.825c0,-11.15 9.041,-20.19 20.191,-20.19l-18.001,0c-11.15,0 -20.191,9.04 -20.191,20.19l0,16.825c0,11.15 9.04,20.19 20.191,20.19l18.001,0c-11.15,0 -20.191,-9.04 -20.191,-20.19z"/>
  </g>
  <g id="svg_30">
   <polygon id="svg_28" fill="#FFEA8A" points="102.99778747558594,78.23192596435547 153.99832153320312,122.9542465209961 204.99948120117188,78.23192596435547 256.00001525878906,122.9542465209961 307.0005645751953,78.23192596435547 358.0016632080078,122.9542465209961 409.00221252441406,78.23192596435547 409.00221252441406,174.065185546875 102.99778747558594,174.065185546875 "/>
   <polygon id="svg_29" fill="#FFDB2D" points="409.00221252441406,78.23192596435547 358.0016632080078,122.9542465209961 307.0005645751953,78.23192596435547 256.00001525878906,122.9542465209961 256.00001525878906,174.065185546875 409.00221252441406,174.065185546875 "/>
  </g>
  <g id="svg_45">
   <g transform="matrix(13.0445, 0, 0, 12.3393, -17.683, -15.4374)" id="svg_34">
    <path id="svg_35" fill="#95a5a6" d="m14.980776,16.497726c-0.7071,0 -1.4347,0.1 -2.0625,0.3c-2.3366,0.8 -3.943,3.2 -3.9375,5.7c-0.00548,2.4 1.6009,4.8 3.9375,5.6c0.9747,0.4 2.1565,0.4 3.1875,0.4c1.95,0 3.172,-2.1 4.875,-2c1.703,-0.1 2.925,2 4.875,2c1.031,0 2.213,0 3.187,-0.4c2.337,-0.8 3.943,-3.2 3.938,-5.6c0.005,-2.5 -1.601,-4.9 -3.938,-5.7c-0.631,-0.2 -1.354,-0.3 -2.062,-0.3l-1.125,0l-9.75,0l-0.7812,0l-0.3438,0z"/>
    <path id="svg_36" fill="#bdc3c7" d="m14.980776,15.497726c-0.7071,0 -1.4347,0.1 -2.0625,0.3c-2.3366,0.8 -3.943,3.2 -3.9375,5.7c-0.00548,2.4 1.6009,4.8 3.9375,5.6c0.9747,0.4 2.1565,0.4 3.1875,0.4c1.95,0 3.172,-2.1 4.875,-2c1.703,-0.1 2.925,2 4.875,2c1.031,0 2.213,0 3.187,-0.4c2.337,-0.8 3.943,-3.2 3.938,-5.6c0.005,-2.5 -1.601,-4.9 -3.938,-5.7c-0.631,-0.2 -1.354,-0.3 -2.062,-0.3l-1.125,0l-9.75,0l-0.7812,0l-0.3438,0z"/>
    <path id="svg_37" fill="#ecf0f1" d="m18.980776,21.49775a4,4 0 1 1 -8,0a4,4 0 1 1 8,0z"/>
    <path id="svg_38" fill="#7f8c8d" d="m14.980776,18.497726c-0.5523,0 -1,0.4 -1,1l0,1l-1,0c-0.5523,0 -1,0.4 -1,1c0,0.5 0.4477,1 1,1l1,0l0,1c0,0.5 0.4477,1 1,1s1,-0.5 1,-1l0,-1l1,0c0.5523,0 1,-0.5 1,-1c0,-0.6 -0.4477,-1 -1,-1l-1,0l0,-1c0,-0.6 -0.4477,-1 -1,-1z"/>
    <path id="svg_39" fill="#ecf0f1" d="m30.980776,21.49775a4,4 0 1 1 -8,0a4,4 0 1 1 8,0z"/>
    <path id="svg_40" fill="#27ae60" d="m25.980776,21.49775a1,1 0 1 1 -2,0a1,1 0 1 1 2,0z"/>
    <path id="svg_41" fill="#f39c12" d="m27.980776,23.49775a1,1 0 1 1 -2,0a1,1 0 1 1 2,0z"/>
    <path id="svg_42" fill="#2980b9" d="m27.980776,19.49775a1,1 0 1 1 -2,0a1,1 0 1 1 2,0z"/>
    <path id="svg_43" fill="#c0392b" d="m29.980776,21.49775a1,1 0 1 1 -2,0a1,1 0 1 1 2,0z"/>
    <path id="svg_44" fill="#7f8c8d" d="m20.480776,21.49775c-0.276,0 -0.5,0.224 -0.5,0.5s0.224,0.5 0.5,0.5l1,0c0.276,0 0.5,-0.224 0.5,-0.5s-0.224,-0.5 -0.5,-0.5l-1,0z"/>
   </g>
  </g>
 </g>
</svg>