<svg width="512" height="512" xmlns="http://www.w3.org/2000/svg">
 <!--! Font Awesome Pro 6.4.0 by @fontawesome - https://fontawesome.com License - https://fontawesome.com/license (Commercial License) Copyright 2023 Fonticons, Inc. -->

 <g>
  <title>background</title>
  <rect fill="none" id="canvas_background" height="402" width="582" y="-1" x="-1"/>
 </g>
 <g>
  <title>Layer 1</title>
  <path fill="#2596be" id="svg_1" d="m119.187502,53c6.338281,0 11.4375,4.723047 11.4375,10.59375l0,3.53125l19.0625,0l0,-3.53125c0,-5.870703 5.099219,-10.59375 11.4375,-10.59375s11.4375,4.723047 11.4375,10.59375l0,3.53125l22.875001,0l0,-3.53125c0,-5.870703 5.099219,-10.59375 11.4375,-10.59375s11.4375,4.723047 11.4375,10.59375l0,3.53125l19.0625,0l0,-3.53125c0,-5.870703 5.099219,-10.59375 11.4375,-10.59375s11.4375,4.723047 11.4375,10.59375l0,3.53125l0,14.125l0,28.25c8.435156,0 15.25,6.312109 15.25,14.125l0,28.25c8.435156,0 15.25,6.312109 15.25,14.125l0,42.375c8.435156,0 15.25,6.312109 15.25,14.125l0,42.375c0,7.812891 -6.814844,14.125 -15.25,14.125l-30.500001,0l0,-70.625l-15.25,0l0,-56.5l-15.25,0l0,-42.375l-15.25,0l0,42.375l15.25,0l0,56.5l15.25,0l0,70.625l-38.125001,0l0,-21.1875c0,-11.697266 -10.246094,-21.1875 -22.875001,-21.1875s-22.875001,9.490234 -22.875001,21.1875l0,21.1875l-38.125001,0l0,-70.625l15.25,0l0,-56.5l15.25,0l0,-42.375l-15.25,0l0,42.375l-15.25,0l0,56.5l-15.25,0l0,70.625l-30.500001,0c-8.435156,0 -15.25,-6.312109 -15.25,-14.125l0,-42.375c0,-7.812891 6.814844,-14.125 15.25,-14.125l0,-42.375c0,-7.812891 6.814844,-14.125 15.25,-14.125l0,-28.25c0,-7.812891 6.814844,-14.125 15.25,-14.125l0,-28.25l0,-14.125l0,-3.53125c0,-5.870703 5.099219,-10.59375 11.4375,-10.59375zm64.812502,120.062501c-8.435156,0 -15.25,6.312109 -15.25,14.125l0,21.1875l30.500001,0l0,-21.1875c0,-7.812891 -6.814844,-14.125 -15.25,-14.125zm-15.25,-35.3125l0,14.125l30.500001,0l0,-14.125c0,-7.812891 -6.814844,-14.125 -15.25,-14.125s-15.25,6.312109 -15.25,14.125z"/>
  <!--! Font Awesome Pro 6.4.0 by @fontawesome - https://fontawesome.com License - https://fontawesome.com/license (Commercial License) Copyright 2023 Fonticons, Inc. -->
  <g id="svg_6">
   <path fill="#97c85b" id="svg_5" d="m246.666746,159.239638c0,11.78352 9.68619,21.343733 21.624983,21.343733l7.208328,0l0,28.458311l28.833311,0l0,-28.458311l43.249966,0l0,28.458311l28.833311,0l0,-28.458311l43.249966,0l0,28.458311l28.833311,0l0,-28.458311l7.208328,0c11.938793,0 21.624983,-9.560214 21.624983,-21.343733l0,-29.61443c0,-3.290492 -2.703123,-5.958459 -6.036974,-5.958459c-0.765885,0 -1.53177,0.133398 -2.252602,0.444661l-22.075504,8.715358c-8.514837,3.334958 -17.615351,5.069137 -26.760917,5.069137l-116.414493,0c-9.190618,0 -18.24608,-1.734178 -26.760917,-5.069137l-22.075504,-8.715358c-0.720833,-0.266797 -1.486718,-0.444661 -2.252602,-0.444661c-3.333852,0 -6.036974,2.667967 -6.036974,5.958459l0,29.61443zm28.833311,92.489512l0,85.374934c0,7.870502 6.442443,14.229156 14.416655,14.229156s14.416655,-6.358654 14.416655,-14.229156l0,-85.374934l115.333244,0l0,85.374934c0,7.870502 6.442443,14.229156 14.416655,14.229156s14.416655,-6.358654 14.416655,-14.229156l0,-85.374934l14.416655,0c7.974213,0 14.416655,-6.358654 14.416655,-14.229156s-6.442443,-14.229156 -14.416655,-14.229156l-201.833176,0c-7.974213,0 -14.416655,6.358654 -14.416655,14.229156s6.442443,14.229156 14.416655,14.229156l14.416655,0z"/>
  </g>
  <!--! Font Awesome Pro 6.4.0 by @fontawesome - https://fontawesome.com License - https://fontawesome.com/license (Commercial License) Copyright 2023 Fonticons, Inc. -->
  <!--! Font Awesome Pro 6.4.0 by @fontawesome - https://fontawesome.com License - https://fontawesome.com/license (Commercial License) Copyright 2023 Fonticons, Inc. -->
  <!--! Font Awesome Pro 6.4.0 by @fontawesome - https://fontawesome.com License - https://fontawesome.com/license (Commercial License) Copyright 2023 Fonticons, Inc. -->
  <g id="svg_21">
   <path fill="#6b747b" id="svg_20" d="m179.896867,250.46711l10.875842,-7.654355c0.570105,-0.398203 1.184063,-0.796407 1.798022,-1.061876c1.403334,-0.707917 2.938231,-1.017631 4.429274,-1.017631s3.02594,0.309714 4.429274,0.973386c0.613959,0.309714 1.227918,0.663672 1.798022,1.061876l10.875842,7.6986c14.910428,10.530269 31.487316,18.361603 49.028996,23.184289l10.086466,2.787424c0.789376,0.221224 1.578751,0.486693 2.280418,0.884897c1.403334,0.752162 2.587398,1.769793 3.55219,3.008648c1.66646,2.167996 2.455835,4.999665 2.061147,7.875579c-0.175417,1.238855 -0.52625,2.389221 -1.096355,3.451096c-0.745521,1.415834 -1.754168,2.610445 -2.982086,3.583831c-1.885731,1.415834 -4.210003,2.256486 -6.621984,2.167996l-3.245211,0l0,24.821347l2.806669,2.256486l2.280418,1.814038c9.253236,7.388886 19.73439,13.096469 30.917211,16.857279l12.673864,4.247503c0.701667,0.221224 1.403334,0.530938 2.017293,0.884897c1.35948,0.752162 2.543544,1.814038 3.420628,3.052893s1.534897,2.698934 1.798022,4.247503c0.219271,1.19461 0.263125,2.433465 0.043854,3.672321s-0.613959,2.389221 -1.184063,3.451096c-0.745521,1.37159 -1.798022,2.5662 -3.02594,3.451096s-2.675106,1.548569 -4.210003,1.814038c-0.701667,0.132734 -1.447189,0.176979 -2.19271,0.176979l-17.278555,0l0,29.15734c8.990111,10.08782 20.786891,17.343972 33.943151,20.662334c4.648545,1.061876 8.156881,5.309379 8.156881,10.353289c0,5.884562 -4.692399,10.618758 -10.525008,10.618758l-17.54168,0l0,14.158344c0,7.831334 -6.271151,14.158344 -14.033344,14.158344s-14.033344,-6.32701 -14.033344,-14.158344l0,-14.158344l-70.166721,0l0,14.158344c0,7.831334 -6.271151,14.158344 -14.033344,14.158344s-14.033344,-6.32701 -14.033344,-14.158344l0,-14.158344l-70.166721,0l0,14.158344c0,7.831334 -6.271151,14.158344 -14.033344,14.158344s-14.033344,-6.32701 -14.033344,-14.158344l0,-14.158344l-17.54168,0c-5.832609,0 -10.525008,-4.734196 -10.525008,-10.618758c0,-5.04391 3.508336,-9.291413 8.156881,-10.353289c13.15626,-3.362607 24.95304,-10.574513 33.943151,-20.662334l0,-29.15734l-17.278555,0c-0.745521,0 -1.491043,-0.044245 -2.19271,-0.176979c-1.534897,-0.309714 -2.982086,-0.929141 -4.210003,-1.814038s-2.280418,-2.079507 -3.069794,-3.451096c-0.570105,-1.061876 -1.008647,-2.212241 -1.184063,-3.451096s-0.175417,-2.47771 0.043854,-3.672321c0.306979,-1.548569 0.920938,-3.008648 1.798022,-4.247503s2.061147,-2.300731 3.420628,-3.052893c0.613959,-0.353959 1.315626,-0.663672 2.017293,-0.884897l12.673864,-4.247503c11.182821,-3.76081 21.663975,-9.468393 30.917211,-16.857279l2.280418,-1.814038l2.806669,-2.256486l0,-3.628076l0,-21.237517l-3.289065,0c-2.411981,0.044245 -4.736254,-0.752162 -6.621984,-2.167996c-1.227918,-0.929141 -2.236564,-2.123752 -2.982086,-3.583831c-0.52625,-1.061876 -0.920938,-2.212241 -1.096355,-3.451096c-0.394688,-2.875914 0.394688,-5.663338 2.061147,-7.875579c0.920938,-1.238855 2.105002,-2.256486 3.55219,-3.008648c0.701667,-0.353959 1.491043,-0.663672 2.280418,-0.884897l10.086466,-2.787424c17.629389,-4.778441 34.206276,-12.609775 49.116705,-23.140044zm59.203171,46.899516l-42.100033,0l-42.100033,0l0,28.316689l31.575024,0l21.050016,0l31.575024,0l0,-28.316689zm-112.266754,70.791722l0,28.316689l59.641713,0l10.525008,0l10.525008,0l59.641713,0l0,-28.316689l-59.641713,0l-10.525008,0l0,0l-10.525008,0l-59.641713,0z"/>
  </g>
 </g>
</svg>