<svg width="1851.9999999999998" height="512" xmlns="http://www.w3.org/2000/svg">
 <g>
  <title>background</title>
  <rect x="-1" y="-1" width="1854" height="514" id="canvas_background" fill="none"/>
 </g>

 <g>
  <title>Layer 1</title>
  <path d="m277.248931,151.05902c-4.688,0 -8.488,-5.33 -8.488,-11.904l0,-59.78c0,-6.575 3.801,-11.904 8.488,-11.904c4.688,0 8.488,5.33 8.488,11.904l0,59.778c0.001,6.575 -3.8,11.906 -8.488,11.906z" fill="#CAE9F7" id="svg_1"/>
  <g fill="#3c8cad" id="svg_2">
   <circle cx="277.247435" cy="50.11002" r="40.380989" fill="#3c8cad" id="svg_3"/>
   <path d="m351.279431,133.11202l-148.059,0c-11.153,0 -20.19,9.038 -20.19,20.19l0,15.702l188.439,0l0,-15.702c0,-11.151 -9.04,-20.19 -20.19,-20.19z" fill="#3c8cad" id="svg_4"/>
  </g>
  <g id="svg_5">
   <path d="m254.871931,50.11002c0,-19.206 13.412,-35.269 31.379,-39.36c-2.896,-0.66 -5.904,-1.02 -9,-1.02c-22.303,0 -40.381,18.078 -40.381,40.38c0,22.301 18.078,40.38 40.381,40.38c3.095,0 6.104,-0.36 9,-1.02c-17.968,-4.093 -31.379,-20.155 -31.379,-39.36z" fill="#231F20" opacity="0.1" id="svg_6"/>
   <path d="m221.221931,133.11202l-18.001,0c-11.153,0 -20.19,9.038 -20.19,20.19l0,15.702l18.002,0l0,-15.702c0,-11.151 9.036,-20.19 20.189,-20.19z" fill="#231F20" opacity="0.1" id="svg_7"/>
  </g>
  <path d="m322.482931,489.77102l-103.001,0c-11.149,0 -20.191,-9.041 -20.191,-20.19l0,-11.216c0,-11.15 9.041,-20.19 20.191,-20.19l115.53,0c11.153,0 20.191,9.04 20.191,20.19l0,11.216c0,11.15 -9.038,20.19 -20.191,20.19l-12.529,0" fill="#3c8cad" id="svg_8"/>
  <path d="m217.292931,469.58102l0,-11.216c0,-11.15 9.041,-20.19 20.191,-20.19l-18.001,0c-11.149,0 -20.191,9.04 -20.191,20.19l0,11.216c0,11.15 9.041,20.19 20.191,20.19l18.001,0c-11.15,0 -20.191,-9.041 -20.191,-20.19z" fill="#231F20" opacity="0.1" id="svg_9"/>
  <g fill="#3c8cad" id="svg_10">
   <path d="m76.493931,238.54802c-30.538,0.175 -55.244,28.974 -55.244,64.486s24.706,64.311 55.244,64.488l0,-128.974z" fill="#3c8cad" id="svg_11"/>
   <path d="m478.005931,238.54802c30.535,0.175 55.244,28.975 55.244,64.487s-24.709,64.311 -55.244,64.488l0,-128.975z" fill="#3c8cad" id="svg_12"/>
  </g>
  <path d="m459.082431,167.87402l-305.1,0l-28.294,0l-32.269,0c-11.151,0 -20.191,9.04 -20.191,20.19l0,232.185c0,11.151 9.04,20.19 20.191,20.19l365.663,0c11.149,0 20.189,-9.04 20.189,-20.19l0,-232.185c0,-11.151 -9.039,-20.19 -20.189,-20.19z" fill="#3c8cad" id="svg_13"/>
  <g id="svg_14">
   <circle cx="183.026931" cy="263.21602" r="24.675995" fill="#CAE9F7" id="svg_15"/>
   <circle cx="371.467931" cy="263.21602" r="24.675995" fill="#CAE9F7" id="svg_16"/>
   <path d="m333.331931,367.53002c0,11.15 -9.038,20.19 -20.191,20.19l-71.787,0c-11.15,0 -20.191,-9.04 -20.191,-20.19l0,-16.825c0,-11.15 9.04,-20.19 20.191,-20.19l71.787,0c11.153,0 20.191,9.04 20.191,20.19l0,16.825z" fill="#CAE9F7" id="svg_17"/>
  </g>
  <g id="svg_18">
   <path d="m39.251931,303.03402c0,-25.499 10.143,-48.232 25.988,-63.092c-25.13,6.167 -43.99,32.067 -43.99,63.092c0,31.027 18.86,56.926 43.99,63.092c-15.845,-14.86 -25.988,-37.592 -25.988,-63.092z" fill="#231F20" opacity="0.1" id="svg_19"/>
   <path d="m92.229931,420.24802l0,-232.184c0,-11.15 9.038,-20.19 20.191,-20.19l-18.004,0c-11.151,0 -20.191,9.04 -20.191,20.19l0,232.185c0,11.151 9.04,20.19 20.191,20.19l18.002,0c-11.151,0 -20.189,-9.04 -20.189,-20.191z" fill="#231F20" opacity="0.1" id="svg_20"/>
   <path d="m176.354931,263.21502c0,-10.451 6.5,-19.378 15.676,-22.975c-2.79,-1.093 -5.823,-1.701 -9,-1.701c-13.63,0 -24.678,11.048 -24.678,24.676c0,13.628 11.048,24.676 24.678,24.676c3.177,0 6.21,-0.608 9,-1.701c-9.177,-3.597 -15.676,-12.524 -15.676,-22.975z" fill="#231F20" opacity="0.1" id="svg_21"/>
   <path d="m364.793931,263.21502c0,-10.451 6.5,-19.378 15.677,-22.975c-2.79,-1.093 -5.825,-1.701 -9.001,-1.701c-13.63,0 -24.677,11.048 -24.677,24.676c0,13.628 11.047,24.676 24.677,24.676c3.177,0 6.211,-0.608 9.001,-1.701c-9.177,-3.597 -15.677,-12.524 -15.677,-22.975z" fill="#231F20" opacity="0.1" id="svg_22"/>
   <path d="m239.165931,367.53002l0,-16.825c0,-11.15 9.041,-20.19 20.191,-20.19l-18.001,0c-11.15,0 -20.191,9.04 -20.191,20.19l0,16.825c0,11.15 9.04,20.19 20.191,20.19l18.001,0c-11.15,0 -20.191,-9.04 -20.191,-20.19z" fill="#231F20" opacity="0.1" id="svg_23"/>
  </g>
  <g id="svg_30">
   <polygon points="124.24771881103516,71.98194599151611 175.24825286865234,116.70426654815674 226.2494125366211,71.98194599151611 277.2499313354492,116.70426654815674 328.25048065185547,71.98194599151611 379.25157928466797,116.70426654815674 430.2521286010742,71.98194599151611 430.2521286010742,167.81520557403564 124.24771881103516,167.81520557403564 " fill="#ffde4c" id="svg_28"/>
   <polygon points="430.2521286010742,71.98194599151611 379.25157928466797,116.70426654815674 328.25048065185547,71.98194599151611 277.2499313354492,116.70426654815674 277.2499313354492,167.81520557403564 430.2521286010742,167.81520557403564 " fill="#ffc72d" id="svg_29"/>
  </g>
  <g id="svg_45">
   <g id="svg_34" transform="matrix(13.0445, 0, 0, 12.3393, -17.683, -15.4374)">
    <path d="m16.609814,15.99122c-0.7071,0 -1.4347,0.1 -2.0625,0.3c-2.3366,0.8 -3.943,3.2 -3.9375,5.7c-0.00548,2.4 1.6009,4.8 3.9375,5.6c0.9747,0.4 2.1565,0.4 3.1875,0.4c1.95,0 3.172,-2.1 4.875,-2c1.703,-0.1 2.925,2 4.875,2c1.031,0 2.213,0 3.187,-0.4c2.337,-0.8 3.943,-3.2 3.938,-5.6c0.005,-2.5 -1.601,-4.9 -3.938,-5.7c-0.631,-0.2 -1.354,-0.3 -2.062,-0.3l-1.125,0l-9.75,0l-0.7812,0l-0.3438,0z" fill="#95a5a6" id="svg_35"/>
    <path d="m16.609814,14.99122c-0.7071,0 -1.4347,0.1 -2.0625,0.3c-2.3366,0.8 -3.943,3.2 -3.9375,5.7c-0.00548,2.4 1.6009,4.8 3.9375,5.6c0.9747,0.4 2.1565,0.4 3.1875,0.4c1.95,0 3.172,-2.1 4.875,-2c1.703,-0.1 2.925,2 4.875,2c1.031,0 2.213,0 3.187,-0.4c2.337,-0.8 3.943,-3.2 3.938,-5.6c0.005,-2.5 -1.601,-4.9 -3.938,-5.7c-0.631,-0.2 -1.354,-0.3 -2.062,-0.3l-1.125,0l-9.75,0l-0.7812,0l-0.3438,0z" fill="#bdc3c7" id="svg_36"/>
    <path d="m20.609814,20.99124a4,4 0 1 1 -8,0a4,4 0 1 1 8,0z" fill="#ecf0f1" id="svg_37"/>
    <path d="m16.609814,17.99122c-0.5523,0 -1,0.4 -1,1l0,1l-1,0c-0.5523,0 -1,0.4 -1,1c0,0.5 0.4477,1 1,1l1,0l0,1c0,0.5 0.4477,1 1,1s1,-0.5 1,-1l0,-1l1,0c0.5523,0 1,-0.5 1,-1c0,-0.6 -0.4477,-1 -1,-1l-1,0l0,-1c0,-0.6 -0.4477,-1 -1,-1z" fill="#7f8c8d" id="svg_38"/>
    <path d="m32.609814,20.99124a4,4 0 1 1 -8,0a4,4 0 1 1 8,0z" fill="#ecf0f1" id="svg_39"/>
    <path d="m27.609814,20.99124a1,1 0 1 1 -2,0a1,1 0 1 1 2,0z" fill="#27ae60" id="svg_40"/>
    <path d="m29.609814,22.99124a1,1 0 1 1 -2,0a1,1 0 1 1 2,0z" fill="#f39c12" id="svg_41"/>
    <path d="m29.609814,18.99124a1,1 0 1 1 -2,0a1,1 0 1 1 2,0z" fill="#2980b9" id="svg_42"/>
    <path d="m31.609814,20.99124a1,1 0 1 1 -2,0a1,1 0 1 1 2,0z" fill="#c0392b" id="svg_43"/>
    <path d="m22.109814,20.99124c-0.276,0 -0.5,0.224 -0.5,0.5s0.224,0.5 0.5,0.5l1,0c0.276,0 0.5,-0.224 0.5,-0.5s-0.224,-0.5 -0.5,-0.5l-1,0z" fill="#7f8c8d" id="svg_44"/>
   </g>
  </g>
  <text font-style="normal" font-weight="bold" transform="matrix(6.94175, 0, 0, 9.25563, -3497.51, -1076.27)" xml:space="preserve" text-anchor="start" font-family="Georgia, Times, 'Times New Roman', serif" font-size="24" id="svg_24" y="158" x="592" stroke-width="0" fill="#697172">Lords Helper</text>
 </g>
</svg>