<svg width="236" height="322" xmlns="http://www.w3.org/2000/svg">
 <!-- Created with SVG Editor - http://github.com/mzalive/SVG Editor/ -->

 <g>
  <title>Layer 1</title>
  <!--! Font Awesome Pro 6.4.0 by @fontawesome - https://fontawesome.com License - https://fontawesome.com/license (Commercial License) Copyright 2023 Fonticons, Inc. -->
  <g id="svg_10">
   <path fill="#97c85b" id="svg_9" d="m102.555582,287.222176c-3.055554,0 -5.555552,-2.499998 -5.555552,-5.555552l0,-133.333248c0,-3.055554 2.499998,-5.555552 5.555552,-5.555552l55.55552,0l0,27.77776c0,6.145829 4.965275,11.111104 11.111104,11.111104l27.77776,0l0,99.999936c0,3.055554 -2.499998,5.555552 -5.555552,5.555552l-88.888832,0zm0,-161.111008c-12.256937,0 -22.222208,9.965271 -22.222208,22.222208l0,133.333248c0,12.256937 9.965271,22.222208 22.222208,22.222208l88.888832,0c12.256937,0 22.222208,-9.965271 22.222208,-22.222208l0,-101.909657c0,-5.902774 -2.326387,-11.562493 -6.493051,-15.729157l-31.458313,-31.423591c-4.166664,-4.166664 -9.79166,-6.493051 -15.694434,-6.493051l-57.465241,0zm19.444432,88.888832c-4.618053,0 -8.333328,3.715275 -8.333328,8.333328s3.715275,8.333328 8.333328,8.333328l49.999968,0c4.618053,0 8.333328,-3.715275 8.333328,-8.333328s-3.715275,-8.333328 -8.333328,-8.333328l-49.999968,0zm0,33.333312c-4.618053,0 -8.333328,3.715275 -8.333328,8.333328s3.715275,8.333328 8.333328,8.333328l49.999968,0c4.618053,0 8.333328,-3.715275 8.333328,-8.333328s-3.715275,-8.333328 -8.333328,-8.333328l-49.999968,0z"/>
  </g>
  <!--! Font Awesome Pro 6.4.0 by @fontawesome - https://fontawesome.com License - https://fontawesome.com/license (Commercial License) Copyright 2023 Fonticons, Inc. -->
  <g id="svg_15">
   <path fill="#2596be" id="svg_14" d="m41.555582,173.222176c-3.055554,0 -5.555552,-2.499998 -5.555552,-5.555552l0,-133.333248c0,-3.055554 2.499998,-5.555552 5.555552,-5.555552l55.55552,0l0,27.77776c0,6.145829 4.965275,11.111104 11.111104,11.111104l27.77776,0l0,99.999936c0,3.055554 -2.499998,5.555552 -5.555552,5.555552l-88.888832,0zm0,-161.111008c-12.256937,0 -22.222208,9.965271 -22.222208,22.222208l0,133.333248c0,12.256937 9.965271,22.222208 22.222208,22.222208l88.888832,0c12.256937,0 22.222208,-9.965271 22.222208,-22.222208l0,-101.909657c0,-5.902774 -2.326387,-11.562493 -6.493051,-15.729157l-31.458313,-31.423591c-4.166664,-4.166664 -9.79166,-6.493051 -15.694434,-6.493051l-57.465241,0zm19.444432,88.888832c-4.618053,0 -8.333328,3.715275 -8.333328,8.333328s3.715275,8.333328 8.333328,8.333328l49.999968,0c4.618053,0 8.333328,-3.715275 8.333328,-8.333328s-3.715275,-8.333328 -8.333328,-8.333328l-49.999968,0zm0,33.333312c-4.618053,0 -8.333328,3.715275 -8.333328,8.333328s3.715275,8.333328 8.333328,8.333328l49.999968,0c4.618053,0 8.333328,-3.715275 8.333328,-8.333328s-3.715275,-8.333328 -8.333328,-8.333328l-49.999968,0z"/>
  </g>
 </g>
</svg>